# xmcd
#
# Track frame offsets: 
#        182
#        11917
#        24467
#        36212
#        48057
#        58915
#        68862
#        84705
#        95287
#        108800
#        119665
#        132982
#        150842
#        172452
#
# Disc length: 2699 seconds
#
# Revision: 5
# Processed by: cddbd v1.5.2PL0 Copyright (c) Steve Scherf et al.
# Submitted via: ExactAudioCopy v0.99pb4
#
DISCID=ba0a890e
DTITLE=Ringo Starr - Beaucoups Of Blues
DYEAR=1970
DGENRE=Rock
TTITLE0=Beaucoups Of Blues
TTITLE1=Love Don't Last Long
TTITLE2=Fastest Growing Heartache In The West
TTITLE3=Without Her
TTITLE4=Woman Of The Night
TTITLE5=I'd Be Talking All The Time
TTITLE6=$15 Draw
TTITLE7=Wine, Women And Loud Happy Songs
TTITLE8=I Wouldn't Have You Any Other Way
TTITLE9=Loser's Lounge
TTITLE10=Waiting
TTITLE11=Silent Homecoming
TTITLE12=Coochy Coochy
TTITLE13=Nashville Jam
EXTD=YEAR: 1970
EXTT0=
EXTT1=
EXTT2=
EXTT3=
EXTT4=
EXTT5=
EXTT6=
EXTT7=
EXTT8=
EXTT9=
EXTT10=
EXTT11=
EXTT12=
EXTT13=bonus track
PLAYORDER=
